<?xml version="1.0" encoding="UTF-8"?><svg id="Layer_1" xmlns="http://www.w3.org/2000/svg" width="1919" height="539.51" viewBox="0 0 1919 539.51"><path d="M1150.14,459.2c-26.06,0-49.07-5.71-69.02-17.13-19.95-11.42-35.64-27.19-47.06-47.3-11.43-20.11-17.13-43.2-17.13-69.26s5.71-49.63,17.13-69.75c11.42-20.11,27.11-35.88,47.06-47.3,19.95-11.42,42.96-17.13,69.02-17.13s48.58,5.72,68.54,17.13c19.95,11.43,35.63,27.2,47.06,47.3,11.42,20.12,17.13,43.37,17.13,69.75s-5.63,49.15-16.89,69.26c-11.27,20.11-26.87,35.88-46.82,47.3-19.96,11.43-42.96,17.13-69.02,17.13ZM1150.14,415.76c16.73,0,31.53-3.86,44.4-11.58,12.87-7.72,22.93-18.34,30.17-31.85,7.24-13.52,10.86-29.12,10.86-46.82s-3.62-33.38-10.86-47.06c-7.24-13.67-17.3-24.38-30.17-32.1-12.87-7.72-27.68-11.58-44.4-11.58s-31.54,3.86-44.41,11.58c-12.87,7.72-23.01,18.42-30.41,32.1-7.41,13.68-11.1,29.37-11.1,47.06s3.69,33.3,11.1,46.82c7.4,13.52,17.53,24.13,30.41,31.85,12.87,7.73,27.67,11.58,44.41,11.58Z"/><path d="M1474.48,459.2c-25.1,0-47.63-5.87-67.57-17.62-19.96-11.74-35.72-27.76-47.3-48.02-11.58-20.27-17.54-43.12-17.86-68.54V104.93c0-7.4,2.33-13.35,7-17.86,4.66-4.5,10.54-6.76,17.62-6.76s13.35,2.26,17.86,6.76c4.5,4.51,6.75,10.46,6.75,17.86v130.32c11.26-13.51,24.86-24.21,40.79-32.09,15.93-7.88,33.38-11.83,52.37-11.83,23.48,0,44.57,5.88,63.23,17.62,18.66,11.75,33.38,27.68,44.16,47.78,10.77,20.11,16.17,42.88,16.17,68.3s-5.88,48.26-17.62,68.54c-11.75,20.27-27.59,36.28-47.54,48.02-19.96,11.75-42.64,17.62-68.06,17.62ZM1474.48,415.76c16.41,0,31.05-3.94,43.92-11.82,12.87-7.88,23.09-18.74,30.65-32.58,7.55-13.83,11.34-29.28,11.34-46.33s-3.79-32.82-11.34-46.34c-7.56-13.51-17.79-24.21-30.65-32.1-12.87-7.88-27.51-11.82-43.92-11.82s-30.65,3.94-43.68,11.82c-13.03,7.89-23.25,18.59-30.65,32.1-7.41,13.52-11.1,28.96-11.1,46.34s3.69,32.5,11.1,46.33c7.4,13.84,17.62,24.7,30.65,32.58,13.03,7.89,27.59,11.82,43.68,11.82Z"/><path d="M838.32,459.2c-25.1,0-47.63-5.87-67.57-17.62-19.96-11.74-35.72-27.76-47.3-48.02-11.58-20.27-17.54-43.12-17.86-68.54V104.93c0-7.4,2.33-13.35,7-17.86,4.66-4.5,10.54-6.76,17.62-6.76s13.35,2.26,17.86,6.76c4.5,4.51,6.75,10.46,6.75,17.86v130.32c11.26-13.51,24.86-24.21,40.79-32.09,15.93-7.88,33.38-11.83,52.37-11.83,23.48,0,44.57,5.88,63.23,17.62,18.66,11.75,33.38,27.68,44.16,47.78,10.77,20.11,16.17,42.88,16.17,68.3s-5.88,48.26-17.62,68.54c-11.75,20.27-27.59,36.28-47.54,48.02-19.96,11.75-42.64,17.62-68.06,17.62ZM838.32,415.76c16.41,0,31.05-3.94,43.92-11.82,12.87-7.88,23.09-18.74,30.65-32.58,7.55-13.83,11.34-29.28,11.34-46.33s-3.79-32.82-11.34-46.34c-7.56-13.51-17.79-24.21-30.65-32.1-12.87-7.88-27.51-11.82-43.92-11.82s-30.65,3.94-43.68,11.82c-13.03,7.89-23.25,18.59-30.65,32.1-7.41,13.52-11.1,28.96-11.1,46.34s3.69,32.5,11.1,46.33c7.4,13.84,17.62,24.7,30.65,32.58,13.03,7.89,27.59,11.82,43.68,11.82Z"/><path d="M1901.39,256.96c-11.75-20.27-27.61-36.27-47.55-48.02-19.96-11.74-42.48-17.62-67.57-17.62s-47.71,5.88-67.81,17.62c-20.11,11.75-36.04,27.76-47.79,48.02-11.74,20.27-17.61,43.12-17.61,68.54s5.39,48.18,16.16,68.28c10.78,20.12,25.51,36.05,44.17,47.8,18.66,11.74,39.74,17.61,63.23,17.61s44.57-5.87,63.23-17.61c11.46-7.22,21.45-16.01,29.93-26.4v17.95c0,7.08,2.33,12.95,7,17.61,4.66,4.67,10.53,7,17.61,7s12.95-2.33,17.62-7c4.66-4.66,7-10.53,7-17.61v-107.63c0-25.43-5.88-48.27-17.61-68.54ZM1860.6,371.59c-7.41,13.68-17.54,24.46-30.4,32.34-12.87,7.89-27.52,11.82-43.93,11.82s-30.65-3.94-43.68-11.82c-13.03-7.89-23.34-18.66-30.89-32.34-7.57-13.67-11.34-29.03-11.34-46.09s3.78-32.9,11.34-46.58c7.56-13.68,17.86-24.46,30.89-32.34,13.02-7.89,27.59-11.82,43.68-11.82s31.05,3.94,43.93,11.82c12.86,7.89,23,18.66,30.4,32.34,7.4,13.67,11.1,29.19,11.1,46.58s-3.71,32.41-11.1,46.09Z"/><path d="M246.16,359.67H.24c-.13,0-.23-.1-.23-.23V30.59C0,13.7,13.7,0,30.6,0h215.33c84.62,0,153.21,68.6,153.21,153.21v53.48c0,84.49-68.49,152.98-152.98,152.98h0Z" style="fill:#a2e871;"/><path d="M309.62,539.51H30.61C13.71,539.51.01,525.81.01,508.92v-149.01C.01,260.46,80.63,179.84,180.09,179.84h126.23c101.28,0,185.13,82.24,183.1,183.5-1.95,97.63-81.7,176.18-179.8,176.18h0Z" style="fill:#a8a9a4;"/><path d="M399.15,203.73v2.99c0,84.49-68.46,152.95-153.02,152.95H.24c-.13,0-.24-.11-.24-.24.06-49.56,20.21-94.43,52.64-126.93,32.55-32.55,77.51-52.64,127.23-52.64h129.73c32.63,0,63.19,8.69,89.55,23.87h0Z" style="fill:#478754;"/></svg>